<svg width="318" height="86" viewBox="0 0 318 86" fill="none" xmlns="http://www.w3.org/2000/svg">
<path fill-rule="evenodd" clip-rule="evenodd" d="M110.35 0.167C110.35 0.259 110.5 0.334 110.683 0.334C110.866 0.334 111.016 0.259 111.016 0.167C111.016 0.0749998 110.866 0 110.683 0C110.5 0 110.35 0.0749998 110.35 0.167ZM174.1 0.352001C173.55 0.426001 172.162 0.562 171.016 0.653C164.031 1.209 160.437 3.491 155.902 10.25C153.994 13.093 152.852 16.476 152.85 19.289C152.85 19.768 152.741 20.443 152.608 20.789C150.225 26.975 151.073 37.436 154.556 44.824C158.17 52.492 158.241 52.984 155.851 53.866C153.779 54.631 153.072 55.425 152.27 57.892C150.76 62.532 153.2 67.855 157.773 69.901C158.778 70.35 161.175 71.45 163.1 72.344C165.025 73.238 167.125 74.209 167.766 74.5C168.408 74.792 169.871 75.466 171.016 75.998C175.411 78.04 175.957 78.286 176.766 78.583C177.225 78.751 177.671 78.951 177.758 79.028C178.488 79.669 178.837 79.017 178.262 78.084C177.745 77.245 177.726 76.578 178.21 76.319C178.837 75.984 183.61 76.026 184.565 76.376C189.017 78.004 197.508 76.896 199.863 74.381C201.696 72.422 202.126 72.49 209.1 75.837C210.658 76.585 212.683 77.557 213.6 77.996C216.874 79.565 217.292 79.51 216.046 77.677C214.465 75.353 213.044 73.841 207.363 68.439C204.689 65.896 204.527 65.843 202.85 66.949C200.106 68.758 197.935 68.646 197.621 66.678C197.42 65.421 198.071 64.789 199.984 64.389C202.232 63.917 203.802 62.69 204.849 60.585C205.351 59.576 207.377 57.667 207.946 57.667C208.199 57.667 209.016 56.842 209.016 56.587C209.016 56.135 208.649 56.137 207.63 56.594C206.611 57.052 206.586 57.054 205.017 56.86C204.146 56.752 203.147 56.665 202.797 56.665C201.749 56.668 201.016 55.838 201.016 54.65C201.016 54.447 200.931 54.336 200.808 54.378C200.657 54.43 200.615 54.844 200.656 55.881C200.76 58.512 199.982 59.948 198.065 60.666C197.569 60.851 196.912 61.246 196.605 61.543C195.043 63.052 194.665 62.905 194.359 60.67C194.168 59.27 194.102 59.097 193.556 58.551L192.962 57.957L191.531 58.083C188.221 58.376 187.773 58.211 186.846 56.37C186.369 55.421 185.867 55.09 185.299 55.349C184.409 55.754 183.741 55.294 182.734 53.584C182.41 53.034 181.792 52.23 181.361 51.798C178.889 49.324 178.445 45.237 180.392 42.888C181.393 41.682 181.487 41.502 181.838 40.128C182.366 38.066 183.575 36.653 185.766 35.536C187.435 34.686 187.868 33.808 187.673 31.664C187.374 28.36 186.706 26.11 185.485 24.286C184.423 22.701 184.456 22.346 185.744 21.456C186.248 21.108 186.186 20.839 185.512 20.441C184.803 20.022 184.733 19.512 185.269 18.663C185.612 18.119 185.69 17.838 185.606 17.437C185.338 16.154 185.321 15.614 185.535 15.192C185.764 14.741 189.195 10.675 189.832 10.1C190.372 9.611 190.261 9.246 189.266 8.243C188.665 7.636 188.35 7.181 188.35 6.918C188.35 4.258 192.802 6.148 195.508 9.956L196.6 11.492L197.457 11.496C198.496 11.501 198.678 11.782 198.184 12.619C197.727 13.395 197.788 13.439 199.497 13.573C201.367 13.719 200.991 13.234 203.995 19.375C206.569 24.637 206.8 25.023 206.629 23.775C206.193 20.593 203.789 15.683 201.19 12.667C200.677 12.071 199.827 11.05 199.302 10.397C195.142 5.227 187.591 1.232 180.886 0.654999C179.904 0.570999 178.462 0.431001 177.683 0.345001C176.046 0.164001 175.478 0.165001 174.1 0.352001ZM18.9333 15.937C10.3743 17.178 3.31633 22.304 1.06033 28.917C-0.740669 34.194 -0.221669 40.223 2.42133 44.744C4.82033 48.849 12.4543 53.642 19.1483 55.248C22.5733 56.07 23.1743 57.373 23.1853 64C23.1933 68.689 23.8593 69.46 27.7653 69.3C31.8983 69.132 32.9523 67.2 32.8103 60.06C32.6603 52.557 31.4773 50.762 25.4093 48.829C12.1203 44.596 6.85133 38.571 10.0363 31.25C12.3593 25.908 20.0463 23.414 25.5913 26.203C28.0513 27.44 28.6283 28.416 28.8463 31.71C29.0823 35.266 30.1363 36.341 33.5083 36.468C39.7273 36.701 40.3853 26.594 34.5363 20.687C30.9113 17.025 24.6243 15.111 18.9333 15.937ZM84.0203 18.746C83.9083 18.881 83.7563 19.237 83.6813 19.537C83.6073 19.838 83.3963 20.646 83.2123 21.334C82.2193 25.044 82.3223 26.379 84.0133 31.75C84.6023 33.622 85.5163 37.402 85.8673 39.417C86.1843 41.237 86.1863 47.286 85.8703 48.375C85.4343 49.876 84.5223 49.233 82.9743 46.334C82.2463 44.97 81.8313 43.903 79.7633 38.084C77.6573 32.155 77.5873 32.027 76.8903 32.837C75.9253 33.959 76.1713 36.682 77.7793 42.667C78.8443 46.632 78.8503 46.7 78.1633 47.328L77.6093 47.834L74.9383 47.829C71.9023 47.824 69.2233 47.607 68.9613 47.345C68.5753 46.959 67.5413 47.135 67.2853 47.63C66.8673 48.439 66.0313 51.664 66.0233 52.5C66.0043 54.411 66.9303 54.874 70.6003 54.79C75.5343 54.678 78.0123 53.45 78.4303 50.911C78.6793 49.401 78.7143 49.314 79.1383 49.152C79.9043 48.861 79.9993 49.007 82.0063 53.604C83.8493 57.825 84.4613 57.872 85.7793 53.891C89.0813 43.915 89.2333 36.09 86.3443 24.75C85.8773 22.917 85.3863 20.967 85.2533 20.417C84.8033 18.557 84.5083 18.158 84.0203 18.746ZM105.698 20.48C104.694 21.889 103.6 24.561 103.6 25.602C103.6 26.957 103.75 27.108 106.446 28.451C109.179 29.813 109.035 29.87 110.065 27.009C111.04 24.3 111.059 24.365 108.576 21.825C106.621 19.824 106.278 19.664 105.698 20.48ZM90.8283 21.609C90.5323 21.966 90.5373 28.574 90.8353 30.25C90.9483 30.892 91.1533 32.092 91.2903 32.917C91.7603 35.757 91.8223 36.09 92.2573 38.084C92.4983 39.184 92.9203 41.209 93.1973 42.584C94.4813 48.971 95.9653 53.656 97.2093 55.25C100.38 59.314 104.764 59.288 109.292 55.179C110.158 54.393 111.369 53.357 111.983 52.876C113.496 51.692 114.446 50.63 115.035 49.464C115.959 47.633 116.991 47.697 120.237 49.789C124.319 52.419 125.946 52.65 128.183 50.914C128.595 50.593 129.289 50.062 129.725 49.733C130.716 48.985 130.768 49.042 127.312 47.084C127.151 46.992 126.495 46.598 125.856 46.209C125.216 45.819 124.663 45.5 124.626 45.5C124.57 45.5 122.045 44.037 121.183 43.506C121.045 43.421 120.561 43.151 120.106 42.906C115.944 40.663 111.657 37.477 109.266 34.851C106.249 31.536 106.253 31.535 104.101 35.832C102.132 39.763 101.882 39.335 108.26 42.991C115.024 46.868 114.998 46.834 112.739 49.019C109.691 51.968 106.388 52.837 102.766 51.645C98.4653 50.228 96.4313 46.621 94.7453 37.417C94.0893 33.839 93.8213 32.34 93.6873 31.5C92.2953 22.807 91.6603 20.608 90.8283 21.609ZM251.747 29.672C250.969 29.911 249.911 31.144 249.77 31.976C249.169 35.535 253.338 37.553 255.574 34.786C257.512 32.389 254.782 28.741 251.747 29.672ZM166.933 34.566C168.408 35.266 169.635 36.819 169.339 37.611C169.094 38.267 168.63 38.228 167.012 37.415C164.582 36.195 162.872 36.303 162.001 37.731C161.029 39.325 162.188 40.321 163.293 38.842C164.283 37.515 165.182 37.402 167.115 38.361C168.796 39.196 168.856 41.113 167.225 41.835C166.159 42.306 165.683 42.784 165.683 43.381C165.683 43.78 165.736 43.848 165.975 43.75C167.395 43.167 168.185 43.71 167.606 44.871C167.133 45.819 167.239 45.99 169.207 47.459C170.372 48.328 171.204 48.834 171.469 48.834C171.949 48.834 171.956 48.914 171.276 46.69C170.599 44.476 170.805 43.614 172.143 43.055C175.404 41.692 178.146 46.946 176.289 51C175.981 51.674 175.945 52.08 175.939 55C175.929 60.082 174.575 63.33 172.464 63.333C171.456 63.334 171.111 63.852 171.561 64.69C172.792 66.98 175.474 70.261 177.135 71.508C179.044 72.941 180.009 74.18 179.49 74.529C177.129 76.117 175.867 75.577 170.09 70.51C169.718 70.184 169.23 69.766 169.006 69.582C167.877 68.652 163.322 64.684 162.556 63.963C160.913 62.415 160.183 60.655 160.183 58.243C160.183 56.382 160.355 56.096 161.683 55.753C162.87 55.446 163.683 54.591 163.683 53.65C163.683 53.304 163.802 52.51 163.948 51.886C164.287 50.43 164.193 49.784 163.478 48.661C162.641 47.348 161.081 44.223 160.028 41.75C158.835 38.95 159.394 36.995 161.853 35.37C163.752 34.115 165.424 33.85 166.933 34.566ZM145.032 35.637C144.769 36.129 145.783 42.676 146.607 45.803C146.868 46.794 146.998 47.584 146.913 47.668C146.614 47.963 142.468 48.534 141.398 48.428C140.067 48.296 139.927 48.492 139.787 50.667C139.655 52.733 139.848 53.953 140.37 54.355C142.188 55.753 150.469 53.032 151.435 50.72C151.859 49.705 152.016 50.2 148.644 41.917C145.988 35.392 145.561 34.649 145.032 35.637ZM304.139 36.339C301.039 37.116 299.116 40.024 297.946 45.702C296.816 51.19 295.335 52.537 290.162 52.782C287.455 52.911 286.688 52.679 285.34 51.323C283.947 49.921 283.791 49.306 283.103 42.5C282.968 41.171 282.78 39.813 282.686 39.482C281.535 35.463 276.586 36.42 277.157 40.551C277.596 43.72 276.802 44.692 273.328 45.241C271.025 45.605 270.158 45.338 269.118 43.944C268.901 43.654 268.631 43.117 268.517 42.75C267.616 39.856 265.518 38.562 263.534 39.677C261.585 40.773 261.389 42.604 262.885 45.75C266.059 52.424 265.981 56.372 262.607 59.762C258.119 64.271 251.036 64.38 246.737 60.006C243.339 56.55 243.148 51.84 246.184 46.432C248.193 42.854 244.344 40.12 241.468 43.082C237.278 47.396 237.61 58.111 242.119 64.102C249.316 73.665 266.378 69.858 270.28 57.818C270.491 57.168 270.599 56.105 270.669 54L270.766 51.084L272.433 51.136C274.397 51.199 275.863 50.888 277.069 50.155C278.165 49.489 278.284 49.521 278.508 50.542C278.937 52.5 279.092 52.977 279.734 54.333C281.489 58.038 283.304 58.836 289.966 58.831C296.097 58.826 298.593 57.978 300.13 55.375C300.659 54.479 300.685 54.482 302.457 55.595C312.86 62.131 320.967 56.108 315.835 45.656C312.471 38.805 308.122 35.34 304.139 36.339ZM204.678 41.85C203.87 42.135 203.261 42.167 198.634 42.167C192.57 42.167 191.788 42.396 196.279 42.855C197.739 43.005 200.133 43.249 201.6 43.398C206.085 43.855 206.194 43.923 207.152 46.88C208.111 49.84 208.683 51.742 208.683 51.969C208.683 52.187 209.117 52.242 209.242 52.04C209.285 51.97 208.888 50.601 208.359 48.998C206.587 43.624 206.35 42.855 206.347 42.468C206.341 41.61 205.864 41.433 204.678 41.85ZM306.3 43.374C308.888 44.522 311.516 47.952 311.516 50.181C311.516 53.02 305.906 51.937 302.546 48.45L301.991 47.875L302.189 46.872C302.738 44.081 304.505 42.577 306.3 43.374ZM194.177 44.821C192.827 45.085 192.956 45.316 194.742 45.827C197.643 46.656 198.748 47.803 197.609 48.803C196.945 49.386 197.132 49.8 197.964 49.591C198.325 49.5 200.852 47.953 201.6 47.365C201.691 47.293 201.879 47.189 202.016 47.134C202.552 46.921 203.683 45.986 203.683 45.755C203.683 45.278 202.94 45.139 199.129 44.907C194.924 44.652 195.031 44.654 194.177 44.821ZM164.016 45.576C164.016 46.075 165.996 48.834 166.354 48.834C166.949 48.834 166.712 48.263 165.517 46.823C164.304 45.36 164.016 45.121 164.016 45.576ZM134.911 49.618C132.719 51.896 132.632 52.231 133.969 53.252C134.955 54.005 135.152 53.988 136.525 53.042C137.946 52.062 137.945 52.026 136.446 50.523C135.24 49.314 135.217 49.3 134.911 49.618ZM167.689 54.012C168.238 55.038 172.309 56.569 172.827 55.944C173.201 55.494 172.324 54.932 170.231 54.279C167.905 53.554 167.416 53.502 167.689 54.012ZM127.241 54.792C126.684 55.391 125.32 57.708 124.947 58.688C124.489 59.892 125.077 60.705 127.58 62.325C129.618 63.645 130.455 63.217 131.596 60.269C132.404 58.181 132.452 58.331 130.292 56.199C128.231 54.167 127.945 54.034 127.241 54.792ZM111.118 57.303C110.363 58.526 110.216 64.056 110.824 68.417C111.68 74.559 111.283 76.224 109.341 74.634C107.978 73.519 107.88 73.317 107.684 71.25C107.299 67.184 107.016 63.356 107.014 62.171C107.011 60.807 106.836 60.281 106.496 60.62C106.34 60.776 106.359 62.139 106.582 66.786C107.219 80.068 107.122 79.316 108.372 80.736C109.511 82.03 112.39 82.671 116.016 82.438C118.58 82.273 120.488 81.793 122.823 80.726C124.178 80.107 124.73 80.051 125.944 80.41C132.641 82.393 143.664 81.205 148.761 77.953C151.243 76.37 154.055 73.103 153.325 72.652C153.093 72.508 150.791 73.195 149.586 73.766C147.652 74.684 146.819 74.416 139.85 70.633C137.136 69.16 137.131 69.156 136.771 68.29C136.362 67.307 136.851 67.168 139 67.655C142.663 68.486 145.01 67.976 147.217 65.871C148.646 64.508 148.487 64.288 145.183 63.055C144.587 62.833 143.875 62.548 143.6 62.422C138.781 60.209 135.19 61.35 131.819 66.167C128.773 70.519 130.807 74.997 136.619 76.737C136.814 76.795 137.109 76.993 137.275 77.176C138.04 78.021 136.482 78.329 131.183 78.382C126.504 78.428 126.387 78.36 127.198 76.068C128.301 72.954 128.296 70.666 127.181 68.584C126.551 67.407 126.162 67.394 125.717 68.533C125.25 69.726 125.018 70.959 125.007 72.3C124.986 74.832 124.811 74.957 119.94 75.923C112.936 77.313 112.526 76.719 117.966 73.065C119.276 72.184 120.656 71.191 121.033 70.856L121.718 70.248L121.523 69.525C121.297 68.687 121.448 68.09 122.1 67.235C123.446 65.47 122.113 65.936 116.857 69.068C113.734 70.929 113.154 71.19 112.935 70.838C112.825 70.659 112.616 67.702 112.358 62.667C112.267 60.879 112.147 59.042 112.093 58.584C111.973 57.579 111.408 56.835 111.118 57.303ZM83.6273 62.459C82.4903 64.716 82.9543 67.759 84.8883 70.722C86.2383 72.788 85.3343 75.099 82.3883 77.111C77.3223 80.571 71.2763 79.269 68.2003 74.057C67.3993 72.699 67.3993 72.964 68.2023 69.531C68.8943 66.579 68.8283 66.316 67.8823 68.25C66.6013 70.87 66.6453 74.179 68.0133 78.084C70.2373 84.432 75.2923 86.165 81.5163 82.712C83.9913 81.339 85.5653 79.168 86.3683 76.021C86.8493 74.135 87.0103 74.038 87.9083 75.101C90.3943 78.04 90.9173 78.201 92.2563 76.445C93.0973 75.343 93.5573 75.321 94.8173 76.321C95.7953 77.098 99.3323 79.172 99.8593 79.277C101.207 79.547 101.332 79.348 102.608 74.917C103.961 70.218 103.9 69.178 102.057 65.514C101.01 63.433 100.845 63.265 100.526 63.954C99.0613 67.122 99.0013 69.083 100.316 70.824C100.63 71.241 100.752 71.607 100.758 72.158L100.766 72.917L100.04 72.884C99.5363 72.861 98.9763 72.65 98.2073 72.196C97.5983 71.836 96.5643 71.273 95.9103 70.944C94.2393 70.107 94.0183 69.626 94.0133 66.823C94.0063 62.348 93.4823 61.329 92.6513 64.174C92.3473 65.215 92.2873 65.858 92.2773 68.139C92.2623 71.451 92.2193 71.529 90.7073 70.964C88.2843 70.057 87.0033 68.878 86.1993 66.815C85.9003 66.046 85.4733 65.021 85.2523 64.537C85.0313 64.054 84.8503 63.582 84.8503 63.489C84.8503 63.193 84.1833 62 84.0173 62C83.9303 62 83.7543 62.207 83.6273 62.459ZM271.456 66.069C269.414 66.825 268.755 69.408 270.158 71.155C272.322 73.85 276.595 71.911 275.847 68.574C275.407 66.607 273.28 65.394 271.456 66.069ZM279.35 66.158C275.674 68.112 278.667 73.734 282.464 72.009C285.492 70.635 284.248 65.815 280.872 65.841C280.289 65.846 279.712 65.966 279.35 66.158ZM28.0073 74.16C23.6983 74.935 21.9683 80.505 25.0823 83.575C27.7403 86.195 32.2683 85.53 33.9113 82.278C36.1003 77.948 32.7283 73.312 28.0073 74.16Z" fill="#1a2e49"/>
</svg>
