<svg width="123" height="69" viewBox="0 0 123 69" fill="none" xmlns="http://www.w3.org/2000/svg">
<g id="dr-khaled-ghattas">
<path id="profile" fill-rule="evenodd" clip-rule="evenodd" d="M83.9597 0.318325C76.9287 1.26933 71.3777 7.13233 70.3887 14.6553C70.2377 15.8003 69.9017 17.3633 69.6427 18.1273C68.1137 22.6253 69.3967 31.2943 72.5997 38.1053C74.6197 42.4003 74.6237 42.9063 72.6377 43.5003C69.7227 44.3743 68.6407 49.0313 70.4797 52.7903C71.7397 55.3653 71.8957 55.4563 86.7317 62.1933C91.2757 64.2563 91.4787 64.2963 90.9477 63.0143C90.2807 61.4023 92.3977 61.0023 96.7357 61.9203C101.27 62.8813 106.534 62.1033 108.538 60.1783C110.104 58.6743 110.436 58.7333 116.651 61.6293C122.534 64.3703 122.788 64.4223 121.643 62.6463C119.111 58.7193 112.116 52.8753 111.228 53.9453C110.185 55.2023 107.179 55.4073 106.886 54.2413C106.556 52.9253 106.834 52.5983 108.829 51.9573C110.991 51.2623 111.713 50.6933 112.584 49.0013C112.969 48.2523 113.693 47.4913 114.564 46.9213C116.384 45.7293 116.55 44.7353 114.776 45.6533C114.144 45.9803 113.584 46.0433 112.637 45.8943C111.932 45.7833 111.055 45.6553 110.689 45.6103C109.916 45.5153 109.559 45.0563 109.553 44.1523C109.551 43.7763 109.428 43.5853 109.258 43.6913C109.089 43.7953 109.029 44.3583 109.114 45.0263C109.354 46.9073 108.804 47.9313 106.91 49.1333C104.176 50.8693 104.302 50.8733 104.072 49.0523C103.836 47.1863 103.399 46.8623 101.17 46.9083C99.1217 46.9503 98.6687 46.7413 97.9957 45.4393C97.6697 44.8103 97.4017 44.6553 96.6377 44.6553C95.9317 44.6553 95.5567 44.4713 95.1867 43.9443C94.9117 43.5533 94.1707 42.6083 93.5387 41.8453C91.5067 39.3893 91.2157 36.4093 92.8147 34.4193C93.2707 33.8513 93.7377 32.9533 93.8507 32.4233C94.1937 30.8233 94.8797 29.9503 96.6967 28.8023C99.2237 27.2053 99.3617 24.4023 97.1327 19.9663L96.1027 17.9173L96.7147 17.4223C97.4537 16.8243 97.4727 16.6293 96.8407 16.1663C96.4257 15.8633 96.4017 15.6853 96.6757 14.9593C96.8527 14.4913 96.9347 13.6373 96.8577 13.0623C96.7277 12.0843 96.8467 11.8703 98.6857 9.79333C100.9 7.29133 100.925 7.22333 99.9657 6.32133C99.2727 5.67133 99.0377 4.55332 99.5297 4.24932C100.421 3.69932 103.723 5.84133 105.124 7.87733C105.731 8.76033 106.153 9.09933 106.646 9.09933C107.334 9.09933 107.594 9.73434 107.044 10.0743C106.48 10.4233 107.11 10.7663 108.314 10.7663H109.546L111.894 15.4183C114.363 20.3113 114.644 20.6433 113.683 17.5313C109.887 5.22834 98.1057 -1.59367 83.9597 0.318325ZM81.6607 27.7213C83.0787 28.2603 84.4217 30.4883 83.3287 30.4883C83.1167 30.4883 82.3977 30.2413 81.7317 29.9383C79.4937 28.9233 77.6037 29.4363 77.6037 31.0593C77.6037 32.1213 78.1137 32.1053 79.0707 31.0143C79.6927 30.3053 79.9657 30.1833 80.5917 30.3323C82.9137 30.8843 83.6317 32.8223 81.8557 33.7443C80.4507 34.4723 80.2207 35.3513 81.5077 35.0683L82.4077 34.8703L82.2307 35.9753C82.0577 37.0583 82.0837 37.1003 83.5907 38.2283C85.6267 39.7503 85.9997 39.7453 85.4677 38.2033C84.6417 35.8053 85.0367 34.6553 86.6837 34.6553C89.1947 34.6553 90.5587 37.7883 89.4347 40.9733C89.1937 41.6563 89.0537 43.0853 89.0717 44.6883C89.1107 48.3293 88.0207 50.7863 86.1867 51.1893C85.7187 51.2913 85.3817 51.5473 85.3817 51.7983C85.3817 52.5803 88.4977 56.5783 90.0247 57.7563C92.4937 59.6613 92.5877 60.7763 90.2787 60.7563C88.7477 60.7433 88.7387 60.7373 82.6937 55.5533C77.0047 50.6743 76.5337 50.0763 76.2897 47.4163C76.1377 45.7623 76.5677 44.9323 77.5757 44.9323C79.9737 44.9323 80.0377 41.3613 77.7227 36.7693C74.9647 31.2963 75.0647 29.5903 78.2347 28.1143C79.8367 27.3683 80.5247 27.2893 81.6607 27.7213ZM112.276 33.6873C112.197 33.7653 110.177 33.8373 107.785 33.8453C102.183 33.8663 102.278 34.1513 108.091 34.7653C113.839 35.3723 113.654 35.2583 114.806 38.9353C115.314 40.5593 115.852 41.9623 116 42.0543C116.352 42.2713 116.299 42.0643 114.827 37.4633C113.597 33.6193 113.092 32.8713 112.276 33.6873ZM103.16 36.2893C103.16 36.4243 103.816 36.7483 104.618 37.0093C106.903 37.7513 107.472 38.4493 106.589 39.4243C106.157 39.9023 106.166 39.9323 106.73 39.9323C107.457 39.9323 111.792 37.1303 111.673 36.7383C111.509 36.1993 103.16 35.7593 103.16 36.2893ZM79.2787 36.4363C79.2747 36.5753 79.6587 37.2943 80.1327 38.0333C80.9737 39.3423 81.5017 39.7323 81.4847 39.0303C81.4747 38.6263 79.2917 36.0583 79.2787 36.4363ZM82.3267 43.4363C82.3267 43.9533 84.9677 45.2043 86.0687 45.2073C86.8857 45.2103 86.8887 45.2053 86.3467 44.6893C85.5137 43.8963 82.3267 42.9033 82.3267 43.4363Z" fill="#24282C"/>
<path id="ghattas" fill-rule="evenodd" clip-rule="evenodd" d="M49.5439 44.8301C47.4079 48.0521 47.4599 48.6821 49.9949 50.3091C51.6809 51.3911 52.4079 51.2431 53.1559 49.6681C54.1819 47.5051 54.1159 47.0861 52.4819 45.4321C50.7549 43.6831 50.3589 43.6021 49.5439 44.8301ZM36.8769 46.3321C36.2469 47.4291 36.0659 51.1951 36.4939 54.2971C37.3599 60.5731 37.0539 61.8081 35.0579 60.1061L34.1629 59.3421L33.8569 54.4811C33.5439 49.4861 33.3129 48.0311 33.1099 49.7591C32.7949 52.4361 33.6959 63.9641 34.2899 64.8541C35.8599 67.2061 41.7439 67.4601 46.4489 65.3791C47.6779 64.8351 47.8389 64.8261 49.2259 65.2171C57.1909 67.4641 69.8359 64.0931 70.9849 59.4161L71.1719 58.6571L69.9619 59.0381C69.2969 59.2481 68.2149 59.6181 67.5569 59.8601L66.3599 60.3011L62.2449 58.2041C57.3559 55.7141 55.6929 53.7211 59.3529 54.7371C61.8719 55.4361 64.0499 55.0621 65.8759 53.6161C67.3879 52.4191 67.2559 52.1661 64.5169 51.0131C59.5389 48.9161 57.7899 49.0761 55.0979 51.8761C51.2309 55.8981 51.6549 59.3741 56.2819 61.5691C59.0079 62.8631 58.7729 63.2211 55.0369 63.4661C49.8379 63.8071 49.2349 63.5041 50.1339 61.0091C50.9259 58.8091 50.4119 55.1891 49.2549 54.8271C48.8279 54.6931 48.0579 57.2591 48.0579 58.8171C48.0579 59.7561 47.5579 60.8701 47.1349 60.8701C47.1079 60.8701 45.7729 61.1201 44.1699 61.4251C38.3319 62.5381 38.0869 62.1791 42.5719 59.0851C45.1739 57.2901 45.2809 57.1751 45.2809 56.1881C45.2809 55.6221 45.4809 54.8741 45.7259 54.5251C46.7489 53.0641 45.7529 53.3901 41.4509 55.9241C39.8789 56.8511 38.5149 57.5301 38.4199 57.4351C38.3239 57.3391 38.1099 54.8921 37.9439 51.9961C37.6729 47.2681 37.3429 45.5191 36.8769 46.3321ZM14.4729 50.5441C13.7729 51.8521 14.0999 54.7201 15.1679 56.6301C16.4939 59.0011 16.3619 59.7781 14.3089 61.6541C10.4259 65.2031 4.98988 64.5851 2.20688 60.2771L1.37587 58.9911L1.90887 56.5971C2.51587 53.8751 2.44787 53.6371 1.60287 55.5221C-0.0431277 59.1981 1.86187 65.7681 5.13087 67.6831C8.88687 69.8851 15.2669 66.8411 16.5609 62.2311C17.1609 60.0931 17.2579 60.0611 18.6359 61.5561C20.0109 63.0471 20.3799 63.0961 21.5709 61.9421L22.4709 61.0701L24.9089 62.6491C28.5639 65.0171 28.8259 64.8841 30.1369 60.0131C30.9699 56.9201 30.8929 55.9041 29.6319 53.3691C28.5639 51.2221 28.3799 51.1811 27.7569 52.9531C27.0809 54.8731 27.1129 55.5011 27.9679 57.1921C29.0349 59.3011 28.6249 59.5731 26.2189 58.3521C23.2869 56.8641 23.0589 56.6191 23.0559 54.9471C23.0529 52.9711 22.7469 50.5921 22.4959 50.5921C22.0169 50.5921 21.3729 53.4721 21.4369 55.3291C21.5209 57.7761 21.3289 57.9591 19.5859 57.0931C17.7199 56.1661 17.2029 55.5241 16.1179 52.7841C15.0199 50.0091 14.8689 49.8041 14.4729 50.5441Z" fill="#24282C"/>
<path id="dr-khaled" fill-rule="evenodd" clip-rule="evenodd" d="M14.0347 16.6111C13.1057 19.9231 13.1447 20.8671 14.3927 25.2381C15.9667 30.7531 16.4797 33.9291 16.2887 36.9771C15.9797 41.8861 14.5297 40.4561 11.6687 32.4231C9.38273 26.0051 9.22173 25.7111 8.61273 26.8491C8.08573 27.8331 8.31973 30.3021 9.29873 34.0681C10.5397 38.8421 10.5567 38.8111 6.59873 38.8111C5.08673 38.8111 3.28474 38.6701 2.59674 38.4961C1.03773 38.1041 0.923732 38.2111 0.296732 40.6491C-0.485268 43.6931 0.208739 44.6451 3.21374 44.6451C7.03974 44.6451 9.45874 43.4041 10.0257 41.1511C10.5267 39.1621 11.0917 39.5011 12.4907 42.6311C14.5147 47.1611 14.8737 47.2301 16.0997 43.3251C18.0787 37.0181 18.5977 29.0591 17.3807 23.6731C16.4947 19.7531 15.1217 15.1011 14.8227 15.0031C14.6497 14.9471 14.3037 15.6531 14.0347 16.6111ZM32.0967 16.6591C29.8367 20.1201 29.8937 21.5101 32.3527 22.8841C34.6017 24.1421 34.9107 24.0521 35.7167 21.9031C36.5757 19.6111 36.6427 19.8691 34.6697 17.8151C32.7547 15.8211 32.6687 15.7821 32.0967 16.6591ZM19.8527 19.0891C19.5857 21.3881 20.2377 26.6271 21.5117 32.4231C21.7307 33.4161 22.1707 35.4161 22.4907 36.8671C25.0157 48.3241 28.9987 50.1881 36.6147 43.4771C38.1237 42.1471 39.5167 40.6761 39.7097 40.2091C40.1817 39.0691 41.1927 38.8301 42.4797 39.5531C46.6657 41.9061 47.2997 42.2001 48.1817 42.2001C49.5277 42.2001 52.5887 40.1831 52.0497 39.6511C51.9107 39.5141 49.2967 37.9401 46.2417 36.1551C39.3787 32.1441 37.8937 31.0941 35.3067 28.4231C32.5827 25.6131 32.4797 25.6351 30.6837 29.4171C29.4097 32.1001 29.4337 32.1491 33.1007 34.2241C39.5597 37.8791 39.6547 37.9951 37.7027 39.8901C34.8797 42.6311 31.0607 43.0241 27.8667 40.9041C25.3397 39.2261 24.2217 36.0331 22.3667 25.2001C20.9457 16.8991 20.2917 15.3081 19.8527 19.0891ZM64.0997 28.8481C63.8797 29.5061 65.0887 36.4741 65.6947 38.0441C65.9507 38.7061 64.8947 39.0731 62.2717 39.2311C61.1247 39.3001 60.1297 39.4141 60.0587 39.4841C59.7007 39.8431 59.8887 43.8561 60.2767 44.1181C61.5967 45.0131 67.2507 43.4571 68.9867 41.7211C69.8777 40.8301 69.5477 39.7371 65.5947 30.4981C64.8437 28.7431 64.3257 28.1711 64.0997 28.8481ZM55.1547 41.0551C54.2517 42.1291 54.2527 42.5161 55.1597 43.2301C55.9207 43.8281 56.1137 43.7921 57.6917 42.7691L58.3087 42.3691L57.4367 41.2851C56.3857 39.9771 56.0877 39.9471 55.1547 41.0551Z" fill="#24282C"/>
</g>
</svg>
