<svg   viewBox="0 0 274 107" fill="none" xmlns="http://www.w3.org/2000/svg">
<g id="logo">
<g id="svgg">
<path id="path0" fill-rule="evenodd" clip-rule="evenodd" d="M10.8755 0.389999C4.90848 2.609 4.43948 10.542 10.1165 13.232L11.2105 13.75L24.9465 13.796C40.2305 13.846 39.6585 13.884 41.4095 12.722C46.2355 9.518 45.3105 2.579 39.7675 0.407L38.7305 0L25.3035 0.00899887L11.8775 0.0179996L10.8755 0.389999ZM151.839 0.82C145.536 2.973 145.647 11.741 152.006 14.055C152.409 14.201 162.581 14.271 192.627 14.334L232.71 14.417V39V63.584L226.346 63.627L219.982 63.671L219.911 56.294C219.834 48.248 219.808 48 218.714 44.75C212.462 26.171 187.968 21.879 175.739 37.221C171.194 42.921 169.297 51.25 170.987 58.084C171.538 60.311 171.896 61.316 172.859 63.334C175.743 69.376 180.862 73.907 187.21 76.036C190.829 77.25 193.112 77.517 200.519 77.592C203.439 77.622 205.876 77.695 205.936 77.755C206.637 78.461 205.772 85.272 204.77 86.938C202.445 90.802 199.492 91.5 185.488 91.5C176.42 91.5 176.083 91.512 175.081 91.849C168.625 94.024 169.072 103.348 175.716 105.078C176.826 105.367 194.729 105.441 197.46 105.168C209.894 103.924 218.456 96.129 219.793 84.838C219.885 84.061 219.96 82.13 219.96 80.546V77.667L229.752 77.662C235.137 77.659 240.075 77.588 240.725 77.503C243.555 77.135 245.769 75.082 246.567 72.085C246.905 70.815 246.887 7.36 246.548 5.941C246.012 3.695 244.718 2.088 242.664 1.114L241.543 0.584L197.127 0.552999C154.882 0.523999 152.667 0.537 151.839 0.82ZM264.668 0.712999C264.279 0.813999 263.96 0.958 263.96 1.032C263.96 1.106 263.857 1.167 263.73 1.167C263.317 1.167 261.556 2.668 261.029 3.468C259.754 5.404 259.882 0.571999 259.832 48.792L259.787 91.834L256.832 91.836C252.74 91.84 251.194 92.23 249.667 93.644C245.487 97.517 247.314 104.431 252.825 105.59C254.524 105.948 266.637 105.942 268.185 105.584C270.662 105.009 272.238 103.654 273.264 101.217L273.628 100.351L273.586 52.959L273.543 5.566L272.914 4.292C271.459 1.35 267.993 -0.155001 264.668 0.712999ZM67.9605 25.5C67.6395 25.582 67.1855 25.696 66.9515 25.755C66.1655 25.949 64.3145 27.461 63.7405 28.377C62.4355 30.457 62.5535 28.468 62.4605 49.917L62.3775 69.084H59.1275C55.1925 69.084 54.6295 68.904 52.8735 67.086C50.2995 64.422 49.1665 60.438 49.4845 55.173C49.5625 53.888 49.5505 51.122 49.4565 48.75C49.3665 46.459 49.3115 42.184 49.3335 39.25L49.3735 33.917L48.8555 32.834C46.7645 28.466 41.7715 27.315 37.9835 30.327L37.0895 31.038L35.6505 30.356C30.4375 27.886 23.8375 27.166 18.8775 28.525C10.5685 30.802 5.01847 35.644 1.61647 43.584C-0.399525 48.289 -0.560523 57.192 1.30648 60.706C1.39148 60.866 1.46048 61.075 1.46048 61.171C1.46048 61.51 2.71148 64.097 3.49948 65.39C6.26748 69.927 10.7255 73.77 15.2105 75.484C15.7605 75.694 16.3605 75.926 16.5435 76C21.2685 77.892 29.0245 77.748 33.8775 75.676C34.9415 75.222 37.5025 73.874 38.3605 73.317C39.5185 72.564 39.7115 72.531 39.9785 73.042C41.5795 76.097 46.1315 79.964 50.0435 81.591C51.6405 82.255 51.9975 82.361 53.9605 82.752C55.5265 83.063 110.559 83.132 111.928 82.825C117.659 81.536 121.586 79.062 125.043 74.559C126.417 72.771 128.627 68.832 128.627 68.173C128.627 68.102 128.769 67.679 128.942 67.231C130.251 63.858 130.505 61.755 130.513 54.25C130.519 48.005 130.514 47.903 130.131 46.917C128.163 41.856 121.542 40.776 118.242 44.977C116.823 46.783 116.793 46.944 116.793 52.813C116.793 60.496 116.307 62.915 114.122 66.09C113.583 66.875 111.998 68.334 111.685 68.334C111.577 68.334 111.463 68.391 111.432 68.461C111.139 69.133 103.641 69.545 103.394 68.903C103.339 68.758 103.293 62.111 103.293 54.131C103.293 38.42 103.326 39 102.349 37.318C99.7765 32.887 92.9925 32.922 90.4805 37.38C89.4925 39.134 89.5535 38.122 89.4615 54.25L89.3775 69.084L82.9185 69.127L76.4605 69.171L76.4545 50.461C76.4485 30.598 76.4595 30.905 75.6595 29.152C74.4495 26.503 70.8035 24.773 67.9605 25.5ZM148.961 28.279C147.337 28.624 145.326 30.069 144.49 31.49C143.488 33.193 143.564 31.18 143.465 58.917C143.392 79.496 143.332 84.53 143.154 85C141.559 89.217 137.387 91.516 131.356 91.502C129.48 91.498 127.342 92.807 126.108 94.716C123.567 98.648 125.774 104.01 130.38 105.095C132.635 105.625 139.064 104.889 141.377 103.836C141.56 103.752 142.077 103.565 142.526 103.419C150.537 100.821 156.341 93.303 157.29 84.299C157.519 82.124 157.519 36.625 157.29 34.626C156.802 30.367 152.948 27.431 148.961 28.279ZM28.0705 42.233C29.8065 42.828 31.7415 44.063 32.7165 45.201C33.7175 46.37 33.8865 46.604 34.3325 47.435C37.0885 52.574 34.9455 59.68 29.8775 62.208C22.3365 65.97 13.9265 60.901 13.9085 52.584C13.8925 45.225 21.2015 39.883 28.0705 42.233ZM198.318 42.185C202.258 43.532 204.736 46.137 205.779 50.029C206.114 51.28 206.316 62.104 206.026 63.261L205.924 63.667L200.9 63.661C192.355 63.65 190.498 63.185 187.614 60.334C184.984 57.733 183.572 53.384 184.443 50.567C184.525 50.301 184.718 49.658 184.871 49.137C185.939 45.517 189.545 42.537 193.793 41.766C194.734 41.595 197.284 41.831 198.318 42.185ZM41.3275 94.367C41.0075 94.687 41.0455 103.225 41.3675 103.493C42.1035 104.103 42.3725 103.687 42.4605 101.804C42.5565 99.758 42.8515 99.123 43.7475 99.033C44.7145 98.936 44.8635 99.324 44.7975 101.777C44.7525 103.45 45.4165 104.273 46.1235 103.421C46.5135 102.952 46.2865 99.023 45.8325 98.387C45.2595 97.583 43.4165 97.231 43.0325 97.853C42.6085 98.538 42.4135 97.945 42.5155 96.28C42.6275 94.449 42.5425 94.167 41.8775 94.167C41.6845 94.167 41.4375 94.257 41.3275 94.367ZM54.9395 94.442C54.6465 94.794 54.5125 102.509 54.7855 103.229C54.9335 103.619 55.0415 103.68 55.5025 103.636L56.0435 103.584L56.0885 99.084C56.1285 95.001 56.1065 94.564 55.8485 94.375C55.4645 94.095 55.2125 94.113 54.9395 94.442ZM67.9935 94.367C67.8655 94.495 67.7935 95.15 67.7935 96.19C67.7935 97.679 67.6455 98.268 67.3785 97.836C67.2015 97.549 65.6595 97.644 64.9945 97.983C63.2885 98.853 63.0785 101.921 64.6335 103.23C65.2525 103.751 66.9195 103.867 67.2935 103.417C67.4075 103.279 67.5965 103.167 67.7135 103.167C67.8295 103.167 67.9685 103.279 68.0205 103.417C68.1595 103.778 68.9155 103.729 69.1215 103.345C69.3695 102.88 69.3515 95.143 69.1005 94.592C68.8925 94.135 68.3385 94.022 67.9935 94.367ZM82.3695 94.378C82.3245 94.494 82.3085 96.613 82.3325 99.086L82.3775 103.584L82.7615 103.638C83.4825 103.74 83.6275 103.421 83.6275 101.722C83.6275 99.626 83.9465 99 85.0175 99C85.6585 99 85.8705 99.599 85.9605 101.667L86.0435 103.584L86.5125 103.637C87.3335 103.732 87.4605 103.465 87.4605 101.637C87.4605 98.599 86.8965 97.596 85.1875 97.596C84.4965 97.596 84.2035 97.67 84.0455 97.886C83.7205 98.331 83.6275 97.912 83.6275 96.005C83.6275 94.667 83.5795 94.351 83.3635 94.268C82.9285 94.101 82.4555 94.153 82.3695 94.378ZM34.3325 94.849L33.9545 94.992L33.9995 99.288L34.0435 103.584L34.5355 103.64C35.2475 103.721 35.4605 103.323 35.4605 101.911C35.4605 100.968 35.5245 100.661 35.7655 100.443C36.2395 100.014 36.3035 100.065 37.5575 101.878C38.6655 103.478 38.7745 103.584 39.3075 103.584C40.3475 103.584 40.2055 102.817 38.8445 101.087C37.0135 98.758 37.0695 99.059 38.2195 97.677C39.5395 96.091 39.8015 95.649 39.6855 95.204C39.4765 94.407 38.7355 94.716 37.6765 96.042C37.1445 96.707 36.6355 97.332 36.5435 97.431C36.4525 97.531 36.2285 97.812 36.0455 98.056C35.4955 98.794 35.3695 98.61 35.4355 97.166C35.5275 95.134 35.2305 94.51 34.3325 94.849ZM76.8775 94.769C76.6935 94.812 76.3735 94.883 76.1645 94.928C74.2525 95.337 72.9005 99.08 73.8505 101.334C75.4235 105.064 80.5945 104.301 80.9155 100.291C81.0325 98.834 80.8265 98.636 79.2525 98.702C77.3925 98.779 77.0565 100.167 78.8985 100.167C80.0325 100.167 79.2645 101.796 77.9435 102.192C75.2185 103.008 73.7925 98.684 76.1085 96.625C76.7065 96.094 78.3925 95.956 78.8385 96.402C79.0595 96.623 79.4605 96.73 79.9075 96.686C80.1595 96.662 80.3315 96.127 80.1995 95.781C79.9505 95.133 77.9445 94.521 76.8775 94.769ZM0.327477 95.034C0.0424773 95.318 0.0424773 103.183 0.327477 103.467C0.641477 103.782 3.97948 103.733 4.66348 103.403C6.02148 102.749 6.42748 100.424 5.34248 99.518L4.80748 99.071L5.12448 98.587C5.86348 97.461 5.63148 96.069 4.57148 95.26C3.93648 94.776 0.754477 94.606 0.327477 95.034ZM16.5305 95.022C16.3175 95.367 16.4555 103.394 16.6775 103.535C16.9915 103.734 19.6825 103.688 20.3105 103.472C23.9075 102.237 24.1945 96.539 20.7315 95.102C19.9545 94.779 16.7185 94.717 16.5305 95.022ZM96.3275 96.2C96.2175 96.31 96.1275 96.685 96.1275 97.034C96.1275 97.6 96.0825 97.667 95.7065 97.667C95.1695 97.667 94.7975 98.354 95.1235 98.745C95.2395 98.886 95.5125 99 95.7305 99C96.1195 99 96.1275 99.029 96.1275 100.563C96.1275 102.994 96.5335 103.667 97.9995 103.667C99.3125 103.667 99.6575 102.315 98.3565 102.267C97.7095 102.244 97.4655 101.686 97.4625 100.218L97.4605 99.019L98.1685 98.968C99.2905 98.887 99.3725 97.715 98.2615 97.635L97.5435 97.584L97.4935 96.792C97.4395 95.959 96.8615 95.666 96.3275 96.2ZM100.86 96.193C100.788 96.31 100.686 96.671 100.634 96.995C100.561 97.446 100.45 97.596 100.157 97.638C99.3015 97.76 99.3205 98.91 100.18 99.032C100.515 99.08 100.547 99.19 100.585 100.417C100.668 103.081 100.998 103.667 102.417 103.667C103.784 103.667 104.206 102.529 102.916 102.32C102.054 102.181 102.043 102.158 102.043 100.528V99.084L102.677 99.031C103.899 98.931 103.914 97.667 102.693 97.667C102.11 97.667 102.042 97.564 101.923 96.5C101.871 96.033 101.097 95.81 100.86 96.193ZM3.79348 96.5C4.70648 97.413 4.02147 98.5 2.53447 98.5H1.46048V97.445C1.46048 96.864 1.51048 96.339 1.57148 96.278C1.84248 96.007 3.46248 96.169 3.79348 96.5ZM20.0925 96.484C22.9855 97.968 21.9705 102.167 18.7175 102.167H17.7935V99.167V96.167H18.6335C19.1315 96.167 19.7255 96.296 20.0925 96.484ZM59.5255 97.659C57.5205 98.136 56.7015 101.005 58.0615 102.788C58.2905 103.088 58.5865 103.334 58.7185 103.334C58.8515 103.334 58.9605 103.409 58.9605 103.5C58.9605 104.108 62.1665 103.496 62.3725 102.849C62.6105 102.099 61.9095 101.679 61.1095 102.093C60.4215 102.448 59.7415 102.393 59.3225 101.948C58.6885 101.272 58.8375 101.167 60.4285 101.167C62.2765 101.167 62.4985 101.028 62.4985 99.877C62.4985 98.279 61.1495 97.272 59.5255 97.659ZM6.85347 97.919C6.69447 98.332 6.88048 98.985 7.70648 100.917C8.13748 101.925 8.52947 102.917 8.57747 103.121C8.71447 103.706 7.91147 104.935 7.31347 105.055C6.22447 105.273 6.43647 106.5 7.56247 106.5C8.81047 106.5 9.05247 106.132 11.1185 101.085C12.2255 98.382 12.3135 97.782 11.6125 97.7C11.0345 97.633 10.8515 97.895 10.2175 99.698C9.56748 101.544 9.44248 101.618 8.98248 100.424C8.78748 99.916 8.46848 99.088 8.27448 98.584C7.90748 97.629 7.10847 97.255 6.85347 97.919ZM24.5405 98.042C24.4905 98.248 24.4695 99.579 24.4965 101L24.5435 103.584H25.1275H25.7105L25.8015 101.834C25.9035 99.889 26.1745 99.231 26.9395 99.072C27.6725 98.919 27.8775 98.735 27.8775 98.232C27.8775 97.584 26.8755 97.447 26.1735 98L25.7245 98.353L25.5985 98.01C25.4165 97.52 24.6645 97.543 24.5405 98.042ZM48.7745 98.072C47.4005 99.006 47.0485 101.59 48.1255 102.832C48.8505 103.668 50.4675 103.96 51.2665 103.4C51.6175 103.155 51.6725 103.156 51.9565 103.414C52.8795 104.249 53.6465 100.471 53.0465 98.042C52.9385 97.602 52.2855 97.525 51.9635 97.914C51.7825 98.132 51.7165 98.132 51.4055 97.914C50.8355 97.515 49.4755 97.596 48.7745 98.072ZM89.8865 97.992C88.2405 99.078 88.1255 102.053 89.6845 103.242C90.3485 103.748 91.9305 103.854 92.2935 103.417C92.4075 103.279 92.5965 103.167 92.7135 103.167C92.8295 103.167 92.9685 103.279 93.0205 103.417C93.1335 103.709 93.8875 103.754 94.0575 103.478C94.2405 103.183 94.2485 98.463 94.0685 98.042C93.8735 97.59 93.2165 97.537 92.9825 97.955C92.8295 98.228 92.8045 98.228 92.5025 97.955C92.0485 97.544 90.5335 97.566 89.8865 97.992ZM105.624 98.042C103.883 99.225 103.918 102.463 105.682 103.453C106.21 103.749 107.647 103.717 108.1 103.4C108.45 103.155 108.505 103.156 108.79 103.414C108.96 103.568 109.274 103.669 109.488 103.639L109.877 103.584V100.669C109.877 97.467 109.825 97.326 108.844 97.851C108.526 98.021 108.371 98.025 108.119 97.867C107.574 97.527 106.245 97.62 105.624 98.042ZM112.014 98.088C110.586 99.213 111.49 101.167 113.438 101.167C113.987 101.167 114.349 101.511 114.261 101.951C114.209 102.211 114.015 102.25 112.789 102.25H111.377V102.745C111.377 104.075 114.759 104.053 115.44 102.72C116.06 101.508 115.506 100.51 113.974 100.08C112.628 99.701 112.627 99.701 112.627 99.428C112.627 99.02 113.202 98.833 114.322 98.876C115.314 98.915 115.38 98.894 115.432 98.528C115.565 97.59 113.056 97.267 112.014 98.088ZM117.598 97.952C115.888 99.013 116.671 100.86 118.992 101.244C120.21 101.445 120.001 102.422 118.758 102.342C116.822 102.218 116.881 102.205 116.827 102.761C116.711 103.943 119.904 104.084 120.831 102.939C121.558 102.042 120.878 100.174 119.822 100.164C119.361 100.16 118.226 99.716 118.158 99.512C117.998 99.032 118.501 98.821 119.694 98.869C120.795 98.914 120.88 98.892 120.928 98.558C121.047 97.722 118.667 97.289 117.598 97.952ZM60.5345 98.937C60.9225 99.085 61.1875 99.643 60.9865 99.886C60.7545 100.167 58.9605 100.043 58.9605 99.747C58.9605 99.233 59.9635 98.717 60.5345 98.937ZM51.1435 99.214C51.5355 99.513 51.8605 100.546 51.7285 101.073C51.2725 102.886 48.9605 102.609 48.9605 100.74C48.9605 99.42 50.2405 98.525 51.1435 99.214ZM67.3065 99.43C67.6195 99.763 67.7105 100.043 67.7105 100.667C67.7105 102.225 66.3155 102.919 65.3915 101.821C64.1365 100.328 65.9835 98.022 67.3065 99.43ZM92.2965 99.42C93.2055 100.388 92.5965 102.341 91.3895 102.328C89.9415 102.313 89.4815 100.564 90.5915 99.292C90.9725 98.855 91.8265 98.919 92.2965 99.42ZM107.91 99.251C109.037 100.04 108.551 102.334 107.257 102.334C106.26 102.334 105.664 101.527 105.844 100.419C106.047 99.17 107.014 98.623 107.91 99.251ZM3.73348 100C4.04848 100 4.62248 100.978 4.50548 101.314C4.24148 102.067 3.76448 102.334 2.68148 102.334H1.62748V101.178C1.62748 99.907 1.78048 99.77 3.02348 99.936C3.28648 99.972 3.60648 100 3.73348 100ZM28.1645 102.093C27.4495 102.594 27.7645 103.667 28.6275 103.667C29.1845 103.667 29.4605 103.383 29.4605 102.812C29.4605 101.972 28.8335 101.624 28.1645 102.093Z" fill="#5588B1"/>
</g>
<circle id="c1" cx="69.5" cy="8.5" r="8.5" fill="#94D40B"/>
<circle id="c2" cx="96.5" cy="17.5" r="8.5" fill="#154E91"/>
<circle id="c3" cx="122.5" cy="25.5" r="8.5" fill="#CDD9E5"/>
</g>
</svg>
