<svg width="783" height="376" viewBox="0 0 783 376" fill="none" xmlns="http://www.w3.org/2000/svg">
<g id="bg" clip-path="url(#clip0_301_9)">
<g id="Group">
<g id="Group_2">
<path id="Vector" opacity="0.5" d="M769.991 524.874C946.415 682.583 665.439 967.9 425.768 1027.41C385.385 1037.44 365.936 1046.4 275.888 1043.94C199.793 1041.86 31.1563 991.635 57.298 857.43C83.4396 723.225 -121.214 483.145 -6.20496 267.284C108.805 51.4241 314.585 109.882 383.191 289.391C451.798 468.899 593.567 367.165 769.991 524.874Z" fill="#002E8E"/>
<path id="Vector 2" opacity="0.5" d="M475.029 1040.82C336.615 1232.91 23.7811 983.259 -60.3062 751.018C-74.4741 711.888 -85.4015 693.473 -92.3235 603.615C-98.1715 527.679 -65.7877 354.607 70.3335 366.54C206.453 378.473 423.809 149.646 650.338 241.441C876.867 333.237 840.164 544.131 668.867 631.229C497.57 718.326 613.441 848.723 475.029 1040.82Z" fill="#002E8E"/>
<path id="Vector 3" opacity="0.4" d="M860.419 501.63C901.903 650.418 799.683 794.476 639.732 981.716C637.03 989.027 621.295 1002.76 579.977 999.221C528.329 994.792 497.174 946.612 278.523 942.038C59.8725 937.464 56.485 732.368 -33.4731 574.459C-123.426 416.551 4.07039 204.114 58.4164 205.14C112.762 206.166 257.256 212.656 429.952 96.1204C602.646 -20.4146 756.356 93.6004 820.065 209.542C883.773 325.485 818.933 352.842 860.419 501.63Z" fill="#002E8E"/>
</g>
</g>
</g>
<defs>
<clipPath id="clip0_301_9">
<rect width="783" height="376" fill="white" transform="translate(783 376) rotate(-180)"/>
</clipPath>
</defs>
</svg>
